<?xml version="1.0" encoding="UTF-8" standalone="no"?>
<!-- Created with Inkscape (http://www.inkscape.org/) -->

<svg
   xmlns:dc="http://purl.org/dc/elements/1.1/"
   xmlns:cc="http://creativecommons.org/ns#"
   xmlns:rdf="http://www.w3.org/1999/02/22-rdf-syntax-ns#"
   xmlns:svg="http://www.w3.org/2000/svg"
   xmlns="http://www.w3.org/2000/svg"
   xmlns:sodipodi="http://sodipodi.sourceforge.net/DTD/sodipodi-0.dtd"
   xmlns:inkscape="http://www.inkscape.org/namespaces/inkscape"
   version="1.1"
   id="svg1051"
   width="999.15216"
   height="974.98907"
   viewBox="0 0 999.15216 974.98908"
   sodipodi:docname="Excel_logo.svg"
   inkscape:version="0.92.3 (unknown)">
  <metadata
     id="metadata1057">
    <rdf:RDF>
      <cc:Work
         rdf:about="">
        <dc:format>image/svg+xml</dc:format>
        <dc:type
           rdf:resource="http://purl.org/dc/dcmitype/StillImage" />
        <dc:title />
      </cc:Work>
    </rdf:RDF>
  </metadata>
  <defs
     id="defs1055" />
  <sodipodi:namedview
     pagecolor="#ffffff"
     bordercolor="#666666"
     borderopacity="1"
     objecttolerance="10"
     gridtolerance="10"
     guidetolerance="10"
     inkscape:pageopacity="0"
     inkscape:pageshadow="2"
     inkscape:window-width="1920"
     inkscape:window-height="1004"
     id="namedview1053"
     showgrid="false"
     inkscape:zoom="0.60413706"
     inkscape:cx="492.9602"
     inkscape:cy="732.001"
     inkscape:window-x="0"
     inkscape:window-y="24"
     inkscape:window-maximized="1"
     inkscape:current-layer="g1152">
    <sodipodi:guide
       position="3.9162042,-9.1240272"
       orientation="0,1000"
       id="guide1129"
       inkscape:locked="false" />
    <sodipodi:guide
       position="1003.9162,-9.1240272"
       orientation="-982,0"
       id="guide1131"
       inkscape:locked="false" />
    <sodipodi:guide
       position="1003.9162,972.87598"
       orientation="0,-1000"
       id="guide1133"
       inkscape:locked="false" />
    <sodipodi:guide
       position="5.6851629,-222.11543"
       orientation="982,0"
       id="guide1135"
       inkscape:locked="false" />
  </sodipodi:namedview>
  <g
     id="g1111"
     transform="translate(4.0324,-0.07842933)">
    <g
       id="g1152">
      <rect
         y="125.9964"
         x="142.98842"
         height="717.48029"
         width="820.47919"
         id="rect1139"
         style="opacity:1;fill:#fbfefd;fill-opacity:1;fill-rule:nonzero;stroke:none;stroke-width:1.98571813;stroke-miterlimit:4;stroke-dasharray:none;stroke-opacity:1" />
      <path
         style="fill:#1f7144;fill-opacity:1"
         d="M 583.88672 -0.16601562 C 577.99848 -0.19221202 570.2975 -0.15280713 562.33789 -0.078125 L 561.19727 -0.078125 L 560.91797 -0.078125 C 560.83147 -0.07813067 560.77547 -0.07811499 560.68945 -0.078125 C 557.13246 -0.0785389 553.94004 -0.082289825 551.02344 -0.080078125 C 543.43049 -0.074320325 537.71705 -0.023665085 532.3418 0.23632812 C 526.98358 0.36648287 523.21441 0.5517596 521.00391 0.79492188 C 519.71966 0.8634404 518.64621 0.93087033 518.08398 1.0019531 C 513.38043 1.5966274 472.1832 8.5505117 426.5332 16.453125 C 70.162664 78.145536 6.3847772 89.306684 5.2832031 90.177734 C 5.2440402 90.208702 5.2048666 90.412996 5.1679688 90.701172 L 4.1972656 90.921875 L 4.0292969 90.921875 L 4.0292969 91.896484 C 2.9265903 92.0083 2.1940489 92.053335 2.1660156 91.970703 C 1.9826822 91.430352 1.4201822 90.988281 0.91601562 90.988281 C 0.36199842 90.988281 0 248.14737 0 488.23828 L 0 885.48828 L 4.0332031 885.55664 L 4.0332031 885.61719 L 4.0332031 886.67969 L 4.0332031 886.76172 L 4.5019531 886.86133 L 6.7832031 887.74219 C 8.2957031 888.32702 50.033203 895.79872 99.533203 904.3457 C 275.33909 934.70146 312.35754 941.12398 382.5332 953.44727 C 421.5832 960.3047 469.2832 968.79806 488.5332 972.32031 L 523.5332 978.72461 L 558.66016 978.82227 C 586.90758 978.90182 594.00537 978.65852 594.90039 977.58008 C 595.67707 976.64424 596.09241 961.15727 596.27344 926.33008 L 596.5332 876.42188 L 778.5332 876.3418 C 942.88595 876.26926 961.41508 876.10126 969.64258 874.61523 C 985.53793 871.74425 994.02024 866.73283 998.50781 857.56055 C 1000.6591 853.16341 1001.9714 851.9112 1002.7715 831.77344 C 1002.7719 831.7676 1002.773 831.75975 1002.7734 831.75391 C 1002.8285 831.04889 1002.8799 830.27187 1002.9297 829.39258 C 1002.9647 829.05961 1003.0027 828.75999 1003.0371 828.42188 C 1003.1745 827.05575 1003.2891 821.76237 1003.3926 814.54492 C 1003.5641 805.17214 1003.6684 787.88478 1003.7461 766.26562 C 1003.8702 743.37685 1003.929 711.99682 1003.9609 674.76172 C 1004.0136 626.20799 1004.0212 564.86473 1004.0234 482.13281 C 1004.0234 427.36166 1003.997 381.22674 1003.957 339.27734 C 1003.928 268.64487 1003.8518 219.0735 1003.6152 186.56641 C 1003.6018 183.77172 1003.5923 179.71495 1003.5781 177.13477 C 1003.5781 176.21947 1003.5685 175.43556 1003.5625 174.55078 C 1003.4133 148.59675 1003.2322 133.22869 1003.0117 131.13281 C 1002.8194 129.30464 1002.5645 127.54429 1002.2871 125.81445 C 1002.2869 125.81092 1002.2874 125.80822 1002.2871 125.80469 C 1001.4906 114.41752 1000.3137 113.07096 998.57617 109.19922 C 995.15131 101.56761 992.08198 98.613873 984.2793 95.443359 C 969.22518 89.326325 977.18872 89.556938 778.0332 89.486328 L 596.5332 89.421875 L 596.00586 44.921875 C 595.71653 20.446875 595.37903 0.309375 595.25586 0.171875 C 595.23518 0.14878389 595.14291 0.12606138 595.01367 0.10546875 L 595.01172 -0.078125 L 594.5332 -0.078125 L 594.5332 -0.080078125 L 593.5332 -0.080078125 L 590.64062 -0.080078125 C 588.77239 -0.12000791 586.67491 -0.15361115 583.88672 -0.16601562 z M 967.5 125.91797 L 967.5 482.98828 L 967.5 839.92188 L 782.50195 839.92188 C 634.2766 839.92188 596.87237 839.66811 596.48633 838.66211 C 596.22062 837.96955 596.12205 823.23205 596.26758 805.91211 L 596.5332 774.42188 L 640.98047 774.16016 C 675.01267 773.96067 685.61211 773.60917 686.21484 772.66016 C 687.58097 770.50913 687.21515 694.50421 685.83203 693.12109 C 684.9348 692.22386 673.45019 691.92188 640.3125 691.92188 L 595.99219 691.92188 L 596.26172 670.67188 L 596.5332 649.42188 L 640.98047 649.16016 C 675.01267 648.96067 685.61211 648.60917 686.21484 647.66016 C 687.58097 645.50913 687.21515 569.50421 685.83203 568.12109 C 684.93481 567.22387 673.45425 566.92188 640.33203 566.92188 L 596.0332 566.92188 L 596.0332 545.42188 L 596.0332 523.92188 L 640.92578 523.92188 C 680.93985 523.92188 685.88476 523.74972 686.42578 522.33984 C 686.75963 521.46986 687.0332 503.55908 687.0332 482.53906 C 687.0332 454.14712 686.7235 444.01256 685.83203 443.12109 C 684.93481 442.22387 673.45425 441.92188 640.33203 441.92188 L 596.0332 441.92188 L 596.0332 420.42188 L 596.0332 398.92188 L 640.92578 398.92188 C 680.93985 398.92188 685.88476 398.74972 686.42578 397.33984 C 686.75963 396.46986 687.0332 378.55908 687.0332 357.53906 C 687.0332 329.14712 686.7235 319.01256 685.83203 318.12109 C 684.93481 317.22387 673.45425 316.92188 640.33203 316.92188 L 596.0332 316.92188 L 596.0332 295.42188 L 596.0332 273.92188 L 640.92578 273.92188 C 680.93985 273.92187 685.88476 273.74972 686.42578 272.33984 C 686.75963 271.46986 687.0332 253.73191 687.0332 232.92188 C 687.0332 212.11184 686.75963 194.37389 686.42578 193.50391 C 685.88476 192.09402 680.93863 191.92188 640.91211 191.92188 L 596.00586 191.92188 L 596.26953 159.17188 L 596.5332 126.42188 L 672.42188 126.31836 L 782.2832 126.16992 L 967.5 125.91797 z M 730.5332 192.42188 L 730.51367 195.48438 L 729.5 195.48828 L 729.23633 231.98438 C 729.09182 252.05694 729.19033 269.04445 729.45508 269.73438 C 729.49773 269.84553 729.85285 269.94404 730.35352 270.03711 C 730.39302 271.5068 730.43841 272.53564 730.49219 272.67578 C 730.52562 272.7629 730.73404 272.8407 731.0332 272.91602 L 731.0332 272.92188 L 731.05469 272.92188 C 734.24685 273.70584 753.04264 273.86292 810.75391 273.67773 L 890.5332 273.42188 L 890.5332 270.52734 C 891.18147 262.84272 891.18153 202.99487 890.5332 195.31445 L 890.5332 192.42188 L 810.5332 192.42188 L 730.5332 192.42188 z M 411.94336 296.98633 C 413.91062 296.99354 415.0332 297.07394 415.0332 297.24805 C 415.0332 297.38382 413.10886 301.42277 409.85547 308.15625 C 409.54413 308.79935 409.33241 309.24172 408.99609 309.93555 C 407.38374 313.26745 404.49933 319.16938 402.3125 323.66406 C 399.04093 330.38531 395.91142 336.82288 391.75977 345.32422 C 378.90294 371.63671 361.96844 406.17723 343.11328 444.50977 L 324.86914 481.59766 L 371.47461 575.52734 C 394.65773 622.25252 413.75966 661.71543 417.11523 669.71875 C 414.33096 669.88637 405.41919 669.68854 401.5332 669.30664 C 399.8832 669.14449 386.6082 668.29973 372.0332 667.42969 C 338.81195 665.44657 339.45025 665.54666 338.24414 662.14258 C 337.71386 660.64595 330.48745 643.79851 322.18555 624.70312 C 303.73476 582.26408 295.30745 561.18495 288.68945 540.92188 C 283.85757 526.12757 282.40803 523.12812 280.85547 524.71289 C 280.54931 525.0254 279.28589 528.08037 277.82422 531.95898 L 277.76562 531.7832 L 272.3457 546.13672 C 269.36483 554.03106 258.65019 579.83828 248.53516 603.48828 C 238.42012 627.13828 228.92372 649.56481 227.43164 653.32422 C 227.04699 654.2934 226.64111 655.1805 226.23242 656.0293 C 225.06088 657.16277 220.67829 657.11221 196.29102 656.54102 C 166.20952 655.83645 155.0332 655.14928 155.0332 654.00391 C 155.0332 653.13617 220.13012 524.4507 231.14258 503.54883 C 235.46217 495.35017 239.08274 487.70246 239.86914 485.19336 L 240.03711 484.87109 L 239.99023 484.75977 C 240.01636 484.64171 240.0332 484.54078 240.0332 484.4707 C 240.0332 481.90784 228.25509 455.50317 200.53711 395.92188 C 169.30993 328.79737 161.97291 312.64818 162.47656 312.14453 C 163.15115 311.46994 226.95616 307.91277 233.13281 308.15234 C 240.67323 324.59957 268.42405 397.05785 276.57812 422.23828 C 277.64814 425.54255 278.72783 428.3323 279.45703 429.82031 C 279.8981 431.13687 280.3376 432.45322 280.64258 433.42188 C 282.81742 440.32961 284.8307 441.16086 286.69531 435.92188 C 287.38044 433.99687 290.19841 426.01207 292.95703 418.17773 C 300.83199 395.81329 339.12956 304.42513 341.70703 301.84766 C 343.00728 300.54741 398.17253 296.93583 411.94336 296.98633 z M 730.5332 317.42188 L 730.50977 320.98828 L 729 320.98828 L 729 357.82227 C 729 378.08061 729.29935 394.95561 729.66602 395.32227 C 729.69198 395.34823 729.97875 395.37293 730.36328 395.39844 C 730.40052 396.6419 730.44312 397.5479 730.49219 397.67578 C 730.52562 397.7629 730.73404 397.8407 731.0332 397.91602 L 731.0332 397.92188 L 731.05469 397.92188 C 734.24685 398.70584 753.04264 398.86292 810.75391 398.67773 L 890.5332 398.42188 L 890.5332 395.52734 C 891.18147 387.84272 891.18153 327.99487 890.5332 320.31445 L 890.5332 317.42188 L 810.5332 317.42188 L 730.5332 317.42188 z M 730.5332 442.42188 L 730.50977 445.98828 L 729 445.98828 L 729 482.82227 C 729 503.08061 729.29935 519.95561 729.66602 520.32227 C 729.69198 520.34823 729.97875 520.37293 730.36328 520.39844 C 730.40052 521.6419 730.44312 522.5479 730.49219 522.67578 C 730.52562 522.7629 730.73404 522.8407 731.0332 522.91602 L 731.0332 522.92188 L 731.05469 522.92188 C 734.24685 523.70584 753.04264 523.86292 810.75391 523.67773 L 890.5332 523.42188 L 890.5332 520.52734 C 891.18147 512.84272 891.18153 452.99487 890.5332 445.31445 L 890.5332 442.42188 L 810.5332 442.42188 L 730.5332 442.42188 z M 730.5332 567.42188 L 730.50977 570.98828 L 729 570.98828 L 729 608.48828 L 729 645.98828 L 730.38086 645.98828 C 730.41388 646.89963 730.4508 647.56793 730.49219 647.67578 C 730.52562 647.7629 730.73404 647.8407 731.0332 647.91602 L 731.0332 647.92188 L 731.05469 647.92188 C 734.24685 648.70584 753.04264 648.86292 810.75391 648.67773 L 890.5332 648.42188 L 890.5332 645.52734 C 891.18147 637.84272 891.18153 577.99487 890.5332 570.31445 L 890.5332 567.42188 L 810.5332 567.42188 L 730.5332 567.42188 z M 730.5332 692.42188 L 730.50977 695.98828 L 729 695.98828 L 729 733.48828 L 729 770.98828 L 730.38086 770.98828 C 730.41388 771.89963 730.4508 772.56793 730.49219 772.67578 C 730.52562 772.7629 730.73404 772.8407 731.0332 772.91602 L 731.0332 772.92188 L 731.05469 772.92188 C 734.24685 773.70584 753.04264 773.86292 810.75391 773.67773 L 890.5332 773.42188 L 890.5332 770.5293 C 891.18155 762.84857 891.18155 702.99518 890.5332 695.31445 L 890.5332 692.42188 L 810.5332 692.42188 L 730.5332 692.42188 z "
         id="path1125"
         transform="translate(-4.0324,0.07842933)" />
    </g>
  </g>
</svg>
