<?xml version="1.0" encoding="UTF-8" standalone="no"?>
<!-- Created with Inkscape (http://www.inkscape.org/) -->

<svg
   xmlns:dc="http://purl.org/dc/elements/1.1/"
   xmlns:cc="http://creativecommons.org/ns#"
   xmlns:rdf="http://www.w3.org/1999/02/22-rdf-syntax-ns#"
   xmlns:svg="http://www.w3.org/2000/svg"
   xmlns="http://www.w3.org/2000/svg"
   xmlns:sodipodi="http://sodipodi.sourceforge.net/DTD/sodipodi-0.dtd"
   xmlns:inkscape="http://www.inkscape.org/namespaces/inkscape"
   version="1.1"
   id="svg928"
   width="221.29277"
   height="241.70764"
   viewBox="0 0 221.29277 241.70764"
   sodipodi:docname="file.svg"
   inkscape:version="0.92.3 (unknown)">
  <metadata
     id="metadata934">
    <rdf:RDF>
      <cc:Work
         rdf:about="">
        <dc:format>image/svg+xml</dc:format>
        <dc:type
           rdf:resource="http://purl.org/dc/dcmitype/StillImage" />
        <dc:title></dc:title>
      </cc:Work>
    </rdf:RDF>
  </metadata>
  <defs
     id="defs932" />
  <sodipodi:namedview
     pagecolor="#ffffff"
     bordercolor="#666666"
     borderopacity="1"
     objecttolerance="10"
     gridtolerance="10"
     guidetolerance="10"
     inkscape:pageopacity="0"
     inkscape:pageshadow="2"
     inkscape:window-width="1920"
     inkscape:window-height="1004"
     id="namedview930"
     showgrid="false"
     inkscape:zoom="1.6230469"
     inkscape:cx="94.930521"
     inkscape:cy="191.38033"
     inkscape:window-x="0"
     inkscape:window-y="24"
     inkscape:window-maximized="1"
     inkscape:current-layer="g1060" />
  <g
     id="g1060"
     transform="translate(-154.2032,1.0761825)">
    <g
       id="g1077">
      <path
         sodipodi:nodetypes="csscssscsssccsscccsscsccsscccsccssccccscsccsscsccscccscscsccscsccscsss"
         inkscape:connector-curvature="0"
         id="path1070"
         d="m 178.97252,239.80009 c -11.73458,-1.72493 -21.07311,-5.8103 -24.02896,-10.51206 -1.87883,-2.98858 -0.17343,-6.13794 5.0219,-9.27392 3.31234,-1.99938 4.78501,-3.65908 5.52449,-6.22608 0.62101,-2.15574 1.34876,-42.96533 1.89481,-106.25409 0.9813,-113.7355811 0.52394,-107.003456 7.35364,-108.244287 1.79166,-0.325512 34.78142,-0.459042 73.31058,-0.296733 l 70.053,0.295108 7.60606,3.759682 c 13.14552,6.497848 27.75532,22.167514 33.32291,35.740318 1.72003,4.193131 1.90081,10.194116 2.65094,88.000002 0.47874,49.65523 1.20847,84.95321 1.80035,87.08529 0.59419,2.14037 1.91673,4.00511 3.28162,4.627 4.30877,1.9632 8.73211,6.41201 8.73211,8.78237 0,4.71584 -11.93231,10.45975 -26,12.51575 -7.59227,1.10961 -162.97585,1.11112 -170.52345,0.002 z m 144.58837,-16.14737 c -6.50586,-1.07912 -7.71544,-1.86469 -2.87116,-1.86469 6.77378,0 12.80624,-1.23269 12.80624,-2.61687 0,-0.73977 1.125,-1.62738 2.5,-1.97249 2.03643,-0.51111 2.5,-1.24089 2.5,-3.93571 0,-1.81955 0.5625,-3.53524 1.25,-3.81265 1.79437,-0.72405 -100.29928,-0.75576 -103,-0.032 -1.32345,0.35468 -2.25,1.37855 -2.25,2.48635 0,1.03585 -0.41968,1.88337 -0.93261,1.88337 -0.51294,0 -1.24859,1.0125 -1.63478,2.25 -0.3862,1.2375 -1.19141,2.56329 -1.78937,2.94621 -1.16561,0.74642 -0.30296,1.16068 4.72476,2.26894 4.21334,0.92874 2.50011,1.78614 -5.1216,2.56314 -3.71052,0.37827 17.1036,0.69904 46.2536,0.71283 34.7417,0.0164 51.12764,-0.28549 47.56492,-0.87643 z m 23.31872,-26.86757 c 3.50892,-3.88396 3.61636,-4.2364 3.61636,-11.86316 v -7.86028 l -4.8428,-4.52986 c -2.66353,-2.49143 -6.26353,-5.26457 -8,-6.16253 l -3.1572,-1.63265 v 2.9905 c 0,1.88641 -0.68314,3.3561 -1.85034,3.98076 -1.12278,0.6009 -18.32528,1.05254 -43.75,1.14863 -23.04481,0.0871 -43.11466,0.21981 -44.59966,0.29492 -2.66235,0.13465 -5.64546,2.12442 -4.66097,3.10892 0.27814,0.27813 17.12314,0.55919 37.43334,0.62457 20.50291,0.066 37.706,0.53131 38.67763,1.04615 1.85186,0.98125 2.37962,4.34975 0.83142,5.30659 -0.50522,0.31224 -18.84272,0.82741 -40.75,1.14483 -21.90728,0.31741 -39.99951,0.74409 -40.20496,0.94817 -0.20545,0.20409 -0.10707,1.06547 0.21862,1.91419 0.67532,1.75985 11.81952,2.02621 70.30409,1.68035 29.66969,-0.17546 33.32278,-0.0224 34.80321,1.45802 0.90973,0.90973 1.51761,2.61046 1.35084,3.77941 l -0.30322,2.12535 -50.5,0.53231 c -27.775,0.29277 -50.56436,0.63027 -50.64301,0.75 -2.13027,3.24271 -2.52332,3.21769 50.55803,3.21769 h 51.85226 z m -16.88364,-33.99712 c -3.62268,-1.67701 -6.97139,-1.8534 -35.5,-1.86996 -28.64812,-0.0166 -31.90741,0.15266 -36,1.86996 l -4.5,1.88825 40,-0.0183 c 39.71228,-0.0182 39.97123,-0.0316 36,-1.86996 z m 0.5,-130.418215 c 0,-0.230016 -0.27314,-1.130016 -0.60699,-2 -0.85742,-2.2344 -2.39301,-1.966033 -2.39301,0.418213 0,1.111111 0.66667,2 1.5,2 0.825,0 1.5,-0.188196 1.5,-0.418213 z"
         style="fill:#f3f4f3" />
      <path
         sodipodi:nodetypes="csssscsscsscsccccssssscssccsccscscsccssscccccsscsccccccscssccccccsssccscscssccsccsscccsccscccccscccccccccccscsc"
         inkscape:transform-center-y="-29.574007"
         inkscape:transform-center-x="2.9265945"
         inkscape:connector-curvature="0"
         id="path1068"
         d="m 189.49597,234.75414 c -16.89021,-1.47334 -29,-4.82887 -29,-8.03567 0,-0.5629 1.317,-1.77931 2.92666,-2.70313 1.60966,-0.92382 3.21668,-2.81539 3.57115,-4.20349 0.35447,-1.3881 1.0513,-49.54882 1.54851,-107.02382 0.49721,-57.475002 1.14877,-105.512502 1.4479,-106.750002 0.29914,-1.2375 0.92906,-2.25 1.39983,-2.25 1.47755,0 2.10261,5.775271 2.2052,20.375 0.111,15.796878 1.45869,35.405058 1.76123,25.625 0.23773,-7.684723 0.583,-8.013429 7.14197,-6.799347 3.02365,0.559686 10.76923,0.808525 17.21238,0.552977 6.44316,-0.255548 11.84316,-0.140449 12,0.255775 0.30321,0.765992 18.92847,-0.428103 29.78517,-1.909575 4.6919,-0.640243 -1.79868,-0.884088 -23.33321,-0.876608 -20.56582,0.0071 -30.17853,-0.33496 -30.94485,-1.101282 -0.76427,-0.764266 -0.809,-1.972601 -0.14315,-3.866792 l 0.96849,-2.755148 43.47636,-0.264368 c 23.912,-0.145402 44.37636,-0.66226 45.47636,-1.148571 1.1,-0.486312 3.575,-1.333907 5.5,-1.883544 2.65571,-0.758276 -1.4451,-1.040414 -17,-1.169608 -35.03848,-0.29102 -76.46466,-0.778579 -77.25,-0.909183 -0.99771,-0.165921 -0.96648,-4.872902 0.0365,-5.492743 0.43255,-0.267328 25.29505,-0.763218 55.25,-1.101977 52.98808,-0.59924 54.61963,-0.675698 60.22487,-2.822265 4.26111,-1.631822 5.60603,-2.597113 5.16493,-3.70704 -1.44782,-3.643085 -1.67305,-8.230134 -0.4415,-8.991277 C 310.41492,4.602049 288.58857,3.89649 228.99646,3.228043 199.29672,2.8949 174.80922,2.434611 174.57979,2.205178 c -0.22944,-0.229432 -0.0814,-0.752854 0.32885,-1.163158 0.41031,-0.410304 32.56813,-0.747804 71.46184,-0.75 l 70.71583,-0.004 7.57026,3.73812 c 13.37796,6.605898 28.29834,22.580614 33.13691,35.478489 2.14568,5.719634 -0.80024,6.804645 2.7779,91.783391 1.87488,44.52744 -3.66816,80.83531 -3.24713,82.05332 0.42103,1.21802 6.91314,9.27659 8.77909,10.37753 1.86595,1.10093 3.39263,2.64301 3.39263,3.42684 0,2.05823 -6.62755,4.40618 -17.7781,6.29827 -8.30143,1.40863 -20.16877,1.6854 -81.2219,1.89425 -39.325,0.13452 -75.775,-0.12832 -81,-0.5841 z m 167.77256,-63.65925 c -8.1014,-116.186424 22.98431,56.88401 -37.55326,57.63619 -70.55429,0.54538 -140.91711,-5.78718 -145.2193,-3.94305 -2.48994,1.06732 4.70546,-95.25349 4.3974,-94.27645 -0.30806,0.97704 -1.06237,2.90143 -1.67624,4.27643 -1.08952,2.4404 -1.13187,2.40464 -1.77674,-1.5 -0.36333,-2.2 -0.72447,17.4875 -0.80252,43.75 l -0.1419,47.75002 h 90 90 z m -168.62095,35.83005 c -0.74162,-0.48211 -1.18542,-1.72264 -0.98623,-2.75674 0.35016,-1.81783 2.83504,-1.88744 74.94917,-2.09952 62.66432,-0.18429 74.8906,0.005 76.48623,1.18268 1.56034,1.15187 1.66736,1.63708 0.59976,2.71935 -1.04718,1.06157 -15.705,1.36716 -75.5,1.57405 -41.31066,0.14294 -74.79822,-0.13181 -75.54893,-0.61982 z m 11.69356,-10.91978 c -7.87694,-0.20911 -10.97229,-0.66537 -11.87245,-1.75 -0.95768,-1.15393 -0.95366,-1.78518 0.0188,-2.95697 1.07555,-1.29596 10.68884,-1.48069 73.87245,-1.41958 39.94979,0.0387 73.64849,0.30786 74.88599,0.59825 3.54973,0.83298 2.86771,3.98679 -1,4.62419 -1.7875,0.29458 -30.39952,0.56598 -63.58226,0.60311 -33.18274,0.0371 -60.63274,0.18369 -61,0.32569 -0.36726,0.142 -5.46242,0.13089 -11.32257,-0.0247 z m -11.69356,-13.06833 c -0.74162,-0.48865 -1.18514,-1.73453 -0.98561,-2.76863 0.34993,-1.81351 2.56046,-1.88729 62.34839,-2.0811 34.09209,-0.11051 62.99811,0.0106 64.23561,0.26905 2.67525,0.55881 2.96685,3.014 0.5,4.20988 -2.36117,1.14465 -124.37938,1.50345 -126.09839,0.3708 z m -0.0483,-11.52434 c -0.69765,-0.84061 -1.11236,-2.3375 -0.92159,-3.32642 0.33,-1.71063 3.80742,-1.79804 71.53304,-1.79804 57.56483,0 71.43485,0.25207 72.48572,1.31732 1.06742,1.08203 0.98418,1.55029 -0.46603,2.62162 -1.40593,1.03863 -15.35717,1.33045 -68.49147,1.43267 -36.69925,0.0706 -68.1086,0.38776 -69.79857,0.7048 -2.09914,0.3938 -3.47454,0.0922 -4.3411,-0.95195 z m -0.42969,-12.28418 c -1.08929,-1.0893 -0.77233,-4.16123 0.5112,-4.9545 0.65165,-0.40274 7.51415,-0.67006 15.25,-0.59406 7.73586,0.076 37.69019,0.11442 66.56519,0.0854 28.875,-0.0291 55.3663,0.0183 58.86955,0.10525 9.93848,0.24665 14.38562,2.82956 8.63574,5.01566 -2.83885,1.07933 -148.76128,1.41268 -149.83168,0.34229 z m 1.01932,-23.13044 c -1.36832,-0.28658 -1.73251,-1.14708 -1.5,-3.54415 l 0.30707,-3.16569 55.32789,0.23912 c 30.43034,0.13152 55.74284,0.49557 56.25,0.80902 1.3599,0.84046 1.12099,4.44569 -0.32789,4.94792 -1.56578,0.54276 -107.59044,1.23038 -110.05707,0.71378 z M 301.77614,104.0573 c -1.5e-4,0 1.5e-4,-4.5e-4 0,-4.6e-4 z m 32.17414,-73.019272 c -3.26059,-7.511231 -4.19563,-11.69359 -3.2322,-14.457312 0.86732,-2.487981 0.67044,-3.280264 -1.35358,-5.447085 -2.69937,-2.88981 -7.77017,-5.777298 -8.63207,-4.915396 -0.31772,0.317723 0.34286,1.588405 1.46797,2.823736 3.76516,4.134035 4.55616,6.881465 4.43978,15.421041 l -0.11346,8.325016 h 4.09161 c 3.51951,0 3.9854,-0.244693 3.33195,-1.75 z"
         style="fill:#e9eae8" />
      <path
         inkscape:connector-curvature="0"
         id="path1066"
         d="m 175.49597,231.15682 c -6.66899,-1.05133 -10,-2.49219 -10,-4.3256 0,-1.03209 0.54962,-2.05973 1.22138,-2.28365 2.03514,-0.67838 2.61516,-14.61349 2.6991,-64.84601 0.11161,-66.793232 1.18116,-120.483296 2.35822,-118.380007 0.56909,1.016902 1.20652,38.319863 1.58634,92.833247 l 0.63496,91.13323 h 90.5 90.5 l 0.2846,-83 c 0.15654,-45.650002 0.0407,-84.371749 -0.25747,-86.048328 -0.49749,-2.797517 -0.82168,-3.015685 -3.94025,-2.65161 -3.99555,0.466458 -13.51043,-2.099031 -18.85412,-5.08362 -2.07197,-1.157255 -5.38082,-4.154377 -7.35299,-6.660272 -3.54822,-4.508483 -3.57957,-4.632134 -2.9949,-11.813523 0.32498,-3.991543 0.1113,-9.493496 -0.47484,-12.226563 -0.58614,-2.733066 -0.90266,-5.767259 -0.70338,-6.742649 0.29719,-1.454634 0.71484,-1.243286 2.32332,1.175688 1.45167,2.183155 2.09203,5.299892 2.46551,12 l 0.50452,9.050875 6.90087,0.299129 c 3.90245,0.169158 7.35672,-0.156717 7.95,-0.75 0.73217,-0.732172 0.72325,-1.049129 -0.0295,-1.049129 -1.7567,0 -3.62041,-5.769493 -3.033,-9.389284 0.37573,-2.31537 -0.0528,-4.338664 -1.38177,-6.523981 -1.75901,-2.892466 -1.77282,-3.085531 -0.15888,-2.221779 2.89138,1.547421 12.86729,12.458521 16.21258,17.732423 6.67194,10.518439 6.35942,5.916813 6.9783,102.747853 l 0.56145,87.84522 2.75,2.19234 c 1.5125,1.20579 2.75,2.5359 2.75,2.9558 0,0.41991 -1.6875,1.528 -3.75,2.46244 -3.43223,1.555 -11.37647,1.71011 -93.75,1.83042 -49.5,0.0723 -91.125,-0.0459 -92.5,-0.26266 z m 13.44256,-25.46173 c -0.30833,-0.49888 -0.29815,-1.3317 0.0226,-1.85071 0.83856,-1.35683 147.25766,-1.31382 148.09653,0.0435 0.35121,0.56827 0.33094,1.34077 -0.045,1.71668 -1.05226,1.05205 -147.42455,1.14154 -148.07411,0.0905 z m 11.55744,-10.86789 c -8.42704,-0.43272 -10.5,-0.83531 -10.5,-2.03917 0,-1.30127 4.5709,-1.52114 34.5,-1.65953 20.77164,-0.096 34.96198,0.22172 35.66097,0.79856 0.71478,0.58987 1.38279,0.59918 1.73813,0.0242 0.69576,-1.12577 74.41143,-1.27885 75.10541,-0.15597 1.51829,2.45664 -5.0741,2.74878 -62.09142,2.75151 -33.0478,0.002 -60.9478,0.18664 -62,0.41121 -1.0522,0.22462 -6.63809,0.16574 -12.41309,-0.13081 z m -11.52901,-13.08611 c -0.32397,-0.52418 -0.32741,-1.37636 -0.008,-1.89372 0.8116,-1.31319 101.3349,-1.23769 103.79322,0.078 1.28373,0.68703 2.29116,0.65303 3.20848,-0.10828 0.82187,-0.68209 4.74737,-0.99787 10.18608,-0.8194 7.06996,0.232 8.84889,0.59193 8.84889,1.79038 0,1.31523 -7.7258,1.52501 -62.72,1.70306 -38.90657,0.12596 -62.94363,-0.1588 -63.30901,-0.75 z m 0.62498,-10.89374 c -0.76307,-0.47161 -1.11507,-1.56717 -0.78221,-2.43459 0.88441,-2.30473 32.18624,-1.93977 32.18624,0.37527 0,1.2484 -2.11534,1.5179 -12.61111,1.60673 -6.93611,0.0587 -13.68985,0.37748 -15.00831,0.70839 -1.31846,0.33092 -3.02153,0.2158 -3.78461,-0.2558 z m 35.07028,-0.17549 c -1.28356,-0.48474 -2.14596,-1.4444 -1.91643,-2.13259 0.32699,-0.98043 11.75912,-1.25124 52.8202,-1.25124 47.80907,0 52.43061,0.14401 52.7191,1.64274 0.28982,1.50561 -3.86029,1.64564 -49.71459,1.67747 -27.51694,0.0191 -50.37814,0.23953 -50.80267,0.48985 -0.42452,0.25031 -1.82205,0.0585 -3.10561,-0.42623 z M 188.9695,157.7452 c -1.34369,-2.17413 1.10296,-2.73581 12.76398,-2.93024 6.74437,-0.11246 12.93749,-0.17368 13.76249,-0.13606 0.825,0.0376 24.22886,0.0964 52.00858,0.13054 28.37701,0.0349 51.15208,0.45985 51.97716,0.96978 0.94908,0.58656 2.00728,0.45349 2.99142,-0.37619 2.19267,-1.84853 13.52284,-0.68809 13.52284,1.385 0,1.31779 -8.89401,1.52517 -73.21745,1.70717 -45.78375,0.12955 -73.43911,-0.15147 -73.80902,-0.75 z m 3.60596,-22.95717 c -1.88128,-0.275 -3.58377,-0.99496 -3.7833,-1.59991 -0.80256,-2.43318 2.35746,-3.08975 11.70381,-2.43176 5.27215,0.37116 10.03494,0.26775 10.70201,-0.23238 0.66111,-0.49565 2.02362,-0.64042 3.02779,-0.32171 2.30161,0.7305 34.65665,1.06826 35.87104,0.37446 0.49454,-0.28253 5.84916,-0.23807 11.89916,0.0988 6.05,0.33688 16.4,0.38101 23,0.0981 8.8269,-0.3784 12.38531,-0.18197 13.45714,0.74285 2.37221,2.04684 0.0752,3.12605 -6.95714,3.26867 -6.0416,0.12253 -53.65298,0.18502 -57,0.0748 -4.664,-0.15357 -28.32841,-0.0206 -33,0.1855 -3.025,0.13342 -7.03923,0.0176 -8.92051,-0.25742 z m -1.2694,-12.04385 c -1.26477,-0.29911 -2.44745,-1.31161 -2.62816,-2.25 -0.28374,-1.47332 0.67079,-1.72463 6.99475,-1.84158 4.02782,-0.0745 8.89832,-0.1031 10.82332,-0.0636 1.925,0.0395 4.85,0.0848 6.5,0.10075 5.09967,0.0491 7.43152,0.095 9.25,0.18191 0.9625,0.046 10.3,0.0788 20.75,0.0728 10.45,-0.006 19.9,0.004 21,0.0227 1.1,0.0184 8.23461,-0.0572 15.85468,-0.16814 13.33167,-0.19401 16.72353,0.43541 15.2443,2.82885 -0.36468,0.59007 -5.95231,1.0587 -13.36287,1.12075 -54.61692,0.45728 -88.48074,0.45562 -90.42602,-0.004 z m 105.59366,-1.11188 c -1.17829,-1.90651 1.41578,-3.07535 6.51163,-2.93401 2.79654,0.0776 5.87212,0.13186 6.83462,0.12065 13.84451,-0.16115 25.92651,0.26748 26.61287,0.94414 0.47457,0.46788 0.56105,1.33904 0.19216,1.93591 -0.89059,1.44101 -39.25885,1.37728 -40.15128,-0.0667 z M 190.74597,110.96848 c -1.38897,-0.19727 -2.25,-1.01372 -2.25,-2.1335 0,-2.95189 4.11259,-3.10384 57,-2.106 9.86169,0.18606 33.37829,0.27133 36,0.13054 0.825,-0.0443 11.33067,-0.0978 23.34593,-0.11885 15.57571,-0.0273 22.2611,0.30626 23.29239,1.16215 2.32728,1.93147 0.11608,3.02086 -6.25857,3.08339 -13.25458,0.13002 -61.09373,-0.0515 -63.87975,-0.24237 -1.65,-0.11305 -3.675,-0.15658 -4.5,-0.0967 -4.21302,0.30566 -60.81932,0.59556 -62.75,0.32136 z m 5.95143,-11.975242 c -5.49012,-0.22175 -7.44654,-0.68037 -7.89572,-1.85092 -0.32843,-0.85588 -0.062,-1.88689 0.59212,-2.29115 0.6541,-0.40425 12.08217,-0.56424 25.39572,-0.35553 27.1584,0.42575 28.21004,0.43381 29.95645,0.22946 0.6875,-0.0804 4.4,-0.12708 8.25,-0.10363 8.00309,0.0488 38.40523,0.0598 46.25,0.0168 2.8875,-0.0158 6.4875,-0.0113 8,0.0101 1.5125,0.0214 5.5625,0.0378 9,0.0365 5.63775,-0.002 6.25,0.19861 6.25,2.05035 0,1.27047 -0.66695,2.07078 -1.75,2.09992 -0.9625,0.0259 -15.025,0.0266 -31.25,0.001 -36.07219,-0.0558 -28.75594,-0.0813 -59.5,0.20735 -14.3,0.13427 -29.28436,0.11146 -33.29857,-0.0507 z m 10.87166,-11.94767 c -17.48687,-0.307341 -20.52153,-0.925362 -19.36338,-3.943443 0.47204,-1.230126 1.61613,-1.41193 5.69056,-0.904274 2.80485,0.349472 5.54973,0.615554 6.09973,0.591294 18.82902,-0.830527 35.30401,-0.573057 37.15744,0.580694 1.68107,1.046463 2.26195,1.070648 2.63076,0.109534 0.34819,-0.907371 4.53651,-1.21868 15.84256,-1.177545 8.45308,0.03075 15.90065,0.385072 16.55014,0.787371 0.6495,0.402299 1.39417,0.386612 1.65482,-0.03486 0.85182,-1.377361 39.4098,-0.92041 40.8141,0.483688 0.7882,0.78809 0.89913,1.596471 0.30018,2.187604 -0.5225,0.515682 -9.95,1.016907 -20.95,1.113836 -11,0.0969 -23.375,0.21417 -27.5,0.26054 -4.125,0.0464 -10.65,0.0203 -14.5,-0.0579 -14.69034,-0.298484 -22.06003,-0.29839 -24.48638,3.1e-4 -1.38249,0.1702 -10.35573,0.17162 -19.94052,0.003 z M 317.5185,86.315169 c -2.35368,-2.836001 0.31277,-3.928619 9.93567,-4.071302 9.606,-0.142432 11.68403,0.428161 10.7189,2.943236 -0.48473,1.263199 -2.15039,1.603805 -7.89572,1.614575 -4.00476,0.008 -8.21282,0.2638 -9.35124,0.56953 -1.25016,0.33573 -2.59963,-0.0825 -3.40761,-1.056039 z M 189.33041,74.088543 c -2.80859,-3.38415 -0.79214,-3.56676 38.20969,-3.46026 21.15073,0.05776 39.13087,0.119736 39.95587,0.137735 0.825,0.018 7.125,-0.169268 14,-0.416149 6.875,-0.246881 14.19014,-0.07153 16.25586,0.389662 2.13681,0.477065 3.99263,0.455444 4.30511,-0.05016 0.64933,-1.050637 29.47299,-0.616428 31.23165,0.470484 0.66406,0.410412 1.20738,1.394646 1.20738,2.187187 0,1.181714 -2.47397,1.452354 -13.75,1.504181 -112.4738,0.516959 -130.44009,0.412689 -131.41556,-0.76268 z m 11.67933,-11.033475 c -11.16088,-0.344893 -14.41375,-1.366349 -11.41455,-3.584361 1.18994,-0.879998 13.98636,-1.120501 50,-0.93973 26.62043,0.133623 49.07578,0.225209 49.90078,0.203527 0.825,-0.02168 11.36386,-0.135008 23.41969,-0.251833 17.62846,-0.170827 22.19271,0.06061 23.31428,1.182188 3.27707,3.27707 1.70618,3.390485 -45.23397,3.265804 -4.4,-0.01169 -19.25,-0.0295 -33,-0.03958 -13.75,-0.01008 -28.80041,-0.0239 -33.44536,-0.03071 -4.64495,-0.0068 -9.36995,0.110599 -10.5,0.260907 -1.13005,0.150308 -6.99844,0.120514 -13.04087,-0.06621 z M 188.93431,50.893039 c -0.24109,-0.24109 -0.43834,-1.205371 -0.43834,-2.142847 0,-1.971707 6.16256,-2.942692 14.5,-2.284648 2.75,0.217048 10.85,0.306729 18,0.19929 15.099,-0.226882 12.26944,-0.233471 38.6674,0.09004 11.36707,0.139307 21.04207,0.07021 21.5,-0.153558 0.69733,-0.340745 32.50104,-0.282583 41.65215,0.07617 2.32722,0.09124 2.76375,0.503419 2.5,2.360536 l -0.31955,2.250006 -19.5,-0.196024 c -22.36944,-0.224869 -19.73732,-0.215707 -56.5,-0.196667 -15.4,0.008 -31.6,-0.0025 -36,-0.0233 -4.4,-0.02079 -11.51525,0.07406 -15.81166,0.210772 -4.29641,0.136714 -8.00891,0.05132 -8.25,-0.189772 z m 3.81166,-11.801511 c -3.39777,-0.334577 -4.25,-0.808014 -4.25,-2.360998 0,-1.753636 0.80213,-1.957819 8.25,-2.100036 4.5375,-0.08664 8.925,-0.04718 9.75,0.08771 2.3707,0.3876 8.9436,0.262128 15.91442,-0.303795 3.52794,-0.286414 7.24974,-0.07371 8.27067,0.472678 1.02093,0.546387 2.34951,0.688573 2.9524,0.31597 1.012,-0.625453 8.12649,-0.703426 40.36251,-0.442363 6.6,0.05345 18.67575,-0.05267 26.83501,-0.235825 10.63391,-0.238703 15.30651,0.01553 16.5,0.897756 4.33509,3.204501 -1.38366,3.689128 -38.83501,3.291011 -0.825,-0.0088 -10.05,0.01777 -20.5,0.05897 -10.45,0.0412 -26.57596,0.03972 -35.83546,-0.0033 -9.2595,-0.04301 -18.7095,0.106052 -21,0.331252 -2.2905,0.22521 -6.07704,0.221142 -8.41454,-0.009 z m -3.14572,-12.225404 c -0.76764,-0.481935 -1.12599,-1.579148 -0.79632,-2.43825 0.52073,-1.357003 3.98495,-1.573261 26.39572,-1.647786 14.18798,-0.04718 29.50882,-0.03693 34.04632,0.02277 4.5375,0.0597 9.0375,0.117318 10,0.128035 0.9625,0.01072 14.87491,-0.06683 30.91648,-0.172326 16.04156,-0.105495 29.65406,0.109534 30.25,0.477844 1.48737,0.91925 1.36808,3.530554 -0.16648,3.644155 -0.6875,0.05089 -13.4,0.06586 -28.25,0.03326 -14.85,-0.0326 -35.325,-0.05128 -45.5,-0.0415 -10.175,0.0098 -23.225,-0.02736 -29,-0.08251 -15.75153,-0.150437 -23.33238,0.0019 -25,0.502384 -0.825,0.247597 -2.12807,0.05586 -2.89572,-0.426071 z"
         style="fill:#d7d7d6" />
      <path
         inkscape:connector-curvature="0"
         id="path1064"
         d="m 172.49597,229.45014 c -3.68388,-0.96348 -4.42903,-1.5383 -4.10867,-3.16952 0.54063,-2.75277 1.80368,-49.85443 2.13162,-79.49259 0.18391,-16.62102 0.5105,-22.57045 1.01554,-18.5 0.40944,3.3 0.79328,26.3074 0.85298,51.12756 0.0839,34.86971 0.39266,45.32586 1.35853,46 0.70201,0.48997 40.92459,0.65324 91.75,0.37244 l 90.5,-0.5 0.5,-64.6671 c 0.275,-35.5669 0.76527,-64.932172 1.08948,-65.256152 0.32422,-0.32397 0.86155,28.262982 1.19408,63.526572 0.54416,57.70653 0.76992,64.29829 2.25848,65.94313 5.14225,5.68212 0.51221,5.96292 -96.84126,5.87307 -63.42563,-0.0585 -88.4277,-0.40136 -91.70078,-1.25741 z M 247.7977,205.4715 c -0.7444,-1.2108 -0.1623,-1.47705 3.69827,-1.6916 7.25887,-0.4034 12.39542,0.0126 11.45,0.92722 -1.217,1.1774 -14.4828,1.84679 -15.14827,0.76438 z m 17.39604,0.68096 c -1.82372,-1.82371 -0.0394,-2.36443 7.80223,-2.36443 5,0 8.5,0.41176 8.5,1 0,0.5628 -2.80607,1 -6.41821,1 -3.53002,0 -7.04102,0.23899 -7.80224,0.5311 -0.76121,0.2921 -1.69801,0.2171 -2.08178,-0.16667 z m -75.13569,-1.26398 c -0.30577,-0.49475 1.45982,-1.05987 3.92353,-1.25582 5.00338,-0.39793 6.51439,-0.11062 6.51439,1.2387 0,1.18577 -9.70582,1.20169 -10.43792,0.0171 z m 15.43792,-0.10045 c 0,-0.55 0.92656,-1 2.05902,-1 1.13246,0 1.7809,0.45 1.44098,1 -0.33992,0.55 -1.26648,1 -2.05902,1 -0.79254,0 -1.44098,-0.45 -1.44098,-1 z m 5.5,0 c -0.37325,-0.60393 0.98962,-1 3.44098,-1 2.23246,0 4.05902,0.45 4.05902,1 0,0.55 -1.54844,1 -3.44098,1 -1.89254,0 -3.7191,-0.45 -4.05902,-1 z m 11.04705,0.0761 c -0.28966,-0.46866 0.70627,-1.02188 2.21315,-1.22936 4.33543,-0.59696 14.29633,0.25275 13.72875,1.17111 -0.68068,1.10137 -15.26429,1.15466 -15.9419,0.0583 z m 20.45295,-0.0761 c 0,-0.55 0.45,-1 1,-1 0.55,0 1,0.45 1,1 0,0.55 -0.45,1 -1,1 -0.55,0 -1,-0.45 -1,-1 z m 41.5,0 c -0.33992,-0.55 -0.14148,-1 0.44098,-1 0.58246,0 1.05902,0.45 1.05902,1 0,0.55 -0.19844,1 -0.44098,1 -0.24254,0 -0.7191,-0.45 -1.05902,-1 z m 6.5,0 c 0,-0.55 2.27656,-1 5.05902,-1 3.11803,0 4.82189,0.38367 4.44098,1 -0.33992,0.55 -2.61648,1 -5.05902,1 -2.44254,0 -4.44098,-0.45 -4.44098,-1 z m 13,0 c 0,-0.55 2.025,-1 4.5,-1 2.475,0 4.5,0.45 4.5,1 0,0.55 -2.025,1 -4.5,1 -2.475,0 -4.5,-0.45 -4.5,-1 z m 11,0 c 0,-0.60353 4.18634,-1 10.55902,-1 6.7847,0 10.3381,0.35745 9.94098,1 -0.34496,0.55816 -5.01038,1 -10.55902,1 -5.96065,0 -9.94098,-0.4004 -9.94098,-1 z M 209.18982,194.14855 c -1.27595,-1.27596 0.49993,-2.36052 3.86517,-2.36052 3.87873,0 4.60931,1.45364 1.19098,2.36971 -2.91874,0.7822 -4.26721,0.77974 -5.05615,-0.009 z m 29.55615,-0.0918 c -4.39819,-0.79717 -2.16042,-2.26871 3.45,-2.26871 3.29721,0 5.29954,0.36712 4.75,0.87089 -1.29129,1.18376 -5.46015,1.89441 -8.2,1.39782 z m 37.80541,-0.0836 c -0.58733,-0.19578 -0.81351,-0.76753 -0.50262,-1.27055 0.72882,-1.17927 8.15573,-1.19523 8.88262,-0.0191 0.55373,0.89595 -6.36622,1.9609 -8.38,1.28964 z m 11.19459,0.15261 c -2.6064,-1.0517 -1.09358,-2.33772 2.75,-2.33772 4.33933,0 5.37243,1.39894 1.75,2.36971 -2.52536,0.67677 -2.74741,0.67519 -4.5,-0.032 z m -96.25,-1.33772 c 0,-0.57143 3,-1 7,-1 4,0 7,0.42857 7,1 0,0.57143 -3,1 -7,1 -4,0 -7,-0.42857 -7,-1 z m 28,0 c 0,-0.5641 2.83333,-1 6.5,-1 3.66667,0 6.5,0.4359 6.5,1 0,0.5641 -2.83333,1 -6.5,1 -3.66667,0 -6.5,-0.4359 -6.5,-1 z m 32,0 c 0,-0.55 1.575,-1 3.5,-1 1.925,0 3.5,0.45 3.5,1 0,0.55 -1.575,1 -3.5,1 -1.925,0 -3.5,-0.45 -3.5,-1 z m 11.27778,-0.33333 c 0.21389,-0.64167 0.91389,-1.12167 1.55555,-1.06667 0.64167,0.055 2.76823,0.1675 4.72569,0.25 5.15771,0.21738 3.26821,1.98333 -2.12209,1.98333 -3.02073,0 -4.41745,-0.39178 -4.15915,-1.16666 z m 36.72222,0.33333 c -1.04485,-0.67524 0.69988,-0.97402 5.75,-0.98469 4.17688,-0.009 7.25,0.40857 7.25,0.98469 0,1.28271 -11.01515,1.28271 -13,0 z m 19,0 c 0,-0.55 0.45,-1 1,-1 0.55,0 1,0.45 1,1 0,0.55 -0.45,1 -1,1 -0.55,0 -1,-0.45 -1,-1 z m 5,0 c 0,-0.55664 2.68634,-1 6.05902,-1 3.7847,0 5.82703,0.37536 5.44098,1 -0.33992,0.55 -3.06648,1 -6.05902,1 -2.99254,0 -5.44098,-0.45 -5.44098,-1 z M 197.09298,182.05171 c -0.21538,-0.21538 -1.80387,-0.43176 -3.52997,-0.48084 -1.7261,-0.0491 -3.37387,-0.47029 -3.66172,-0.93603 -0.28784,-0.46575 2.6532,-0.84681 6.53566,-0.84681 7.10022,0 9.64986,1.39275 4.05333,2.21414 -1.65313,0.24263 -3.18191,0.26492 -3.3973,0.0495 z m 21.40348,-0.097 c -0.55027,-0.18335 -1.00049,-0.74585 -1.00049,-1.25001 0,-0.50417 3.375,-0.91667 7.5,-0.91667 4.33333,0 7.5,0.42222 7.5,1 0,0.55 -0.5625,1.05363 -1.25,1.11918 -3.2721,0.31199 -11.85962,0.34397 -12.74951,0.0475 z m 24.45157,-0.0479 c -1.56853,-1.56858 0.57331,-2.11878 8.24794,-2.11878 5.18454,0 8.31613,0.36316 7.75,0.89874 -0.98589,0.93269 -15.20119,2.01674 -15.99794,1.21999 z m -30.45206,-1.11878 c 0,-0.55 0.9,-1 2,-1 1.1,0 2,0.45 2,1 0,0.55 -0.9,1 -2,1 -1.1,0 -2,-0.45 -2,-1 z m 25,0 c 0,-0.55 0.45,-1 1,-1 0.55,0 1,0.45 1,1 0,0.55 -0.45,1 -1,1 -0.55,0 -1,-0.45 -1,-1 z m 26,0 c 0,-0.55 2.475,-1 5.5,-1 3.025,0 5.5,0.45 5.5,1 0,0.55 -2.475,1 -5.5,1 -3.025,0 -5.5,-0.45 -5.5,-1 z m 14.5,0 c -0.38973,-0.63059 1.98962,-1 6.44098,-1 4.03935,0 7.05902,0.42778 7.05902,1 0,0.56316 -2.81366,1 -6.44098,1 -3.54254,0 -6.7191,-0.45 -7.05902,-1 z m 18.5,0 c 0,-0.59259 3.66667,-1 9,-1 5.33333,0 9,0.40741 9,1 0,0.59259 -3.66667,1 -9,1 -5.33333,0 -9,-0.40741 -9,-1 z m -107,-11.375 c 0,-1.31944 1.1282,-1.625 6,-1.625 3.33333,0 6,0.44444 6,1 0,0.55 -1.29375,1 -2.875,1 -1.58125,0 -4.28125,0.28125 -6,0.625 -2.47436,0.49487 -3.125,0.28667 -3.125,-1 z m 18.25,0.7361 c -3.07726,-1.29926 -0.71621,-2.3611 5.25,-2.3611 3.66667,0 6.5,0.4359 6.5,1 0,0.55 -1.4625,1.00614 -3.25,1.01365 -1.7875,0.008 -4.15,0.20751 -5.25,0.44443 -1.1,0.23693 -2.5625,0.19329 -3.25,-0.097 z m 16.77896,-0.34104 c -2.66317,-1.64985 -0.44672,-2.33471 6.92104,-2.13854 3.49626,0.0931 4.1891,0.37938 3.23269,1.33579 -1.50826,1.50826 -8.16533,2.03457 -10.15373,0.80275 z m 17.72104,0.17584 c -6.58726,-0.42364 -5.98195,-2.1959 0.75,-2.1959 3.025,0 5.5,0.42344 5.5,0.94098 0,1.39154 -1.00087,1.5925 -6.25,1.25492 z m 8.91667,0.13743 c -1.26779,-1.26779 -0.65891,-2.33333 1.33333,-2.33333 1.11111,0 2,0.66667 2,1.5 0,1.52241 -2.1154,2.05126 -3.33333,0.83333 z m 11.08333,-0.0383 c -3.01983,-0.76215 -1.90561,-2.29502 1.66821,-2.29502 1.88002,0 4.01752,-0.22027 4.75,-0.4895 1.36594,-0.50204 4.65021,1.04902 3.80283,1.79597 -0.81442,0.7179 -8.39025,1.45062 -10.22104,0.98855 z m 15.75,-1.29502 c -0.36058,-0.58342 0.65628,-1 2.44098,-1 1.68246,0 3.05902,0.45 3.05902,1 0,0.55 -1.09844,1 -2.44098,1 -1.34254,0 -2.7191,-0.45 -3.05902,-1 z m 9.5,0 c 0,-0.55556 2.66667,-1 6,-1 3.33333,0 6,0.44444 6,1 0,0.55556 -2.66667,1 -6,1 -3.33333,0 -6,-0.44444 -6,-1 z m 14,0 c 0,-0.55 1.35,-1 3,-1 1.65,0 3,0.45 3,1 0,0.55 -1.35,1 -3,1 -1.65,0 -3,-0.45 -3,-1 z m 14.5,0 c 0.33992,-0.55 3.06648,-1 6.05902,-1 2.99254,0 5.44098,0.45 5.44098,1 0,0.55664 -2.68634,1 -6.05902,1 -3.7847,0 -5.82703,-0.37536 -5.44098,-1 z m -80.25,-10.73724 c -5.72092,-0.40022 -7.25381,-2.20558 -2,-2.3555 5.40089,-0.15411 12.22036,0.24017 12.72104,0.73549 0.72379,0.71604 -2.28095,2.34813 -3.97104,2.15695 -0.825,-0.0933 -3.8625,-0.33494 -6.75,-0.53694 z m 74.75,0.006 c -6.30038,-0.74041 -5.76144,-2.26876 0.8,-2.26876 5.9135,0 8.01568,1.08928 4.61821,2.39301 -0.86998,0.33385 -1.65748,0.53497 -1.75,0.44695 -0.0925,-0.088 -1.74321,-0.3451 -3.66821,-0.57129 z m -121,-1.16177 c 0,-0.49116 0.5625,-1.09987 1.25,-1.35269 1.75753,-0.64633 3.87459,0.23509 3.19721,1.33111 -0.72795,1.17786 -4.44721,1.19591 -4.44721,0.0216 z m 8.55,-0.0263 c 0.5225,-0.50562 4.55,-1.00218 8.95,-1.10347 10.07669,-0.23196 10.5,-0.19072 10.5,1.02278 0,0.60131 -4.06667,1 -10.2,1 -6.22542,0 -9.82982,-0.35822 -9.25,-0.91931 z m 26.45,-0.0807 c 0,-0.55 0.92656,-1 2.05902,-1 1.13246,0 1.7809,0.45 1.44098,1 -0.33992,0.55 -1.26648,1 -2.05902,1 -0.79254,0 -1.44098,-0.45 -1.44098,-1 z m 27,0.0695 c 0,-1.13035 3.51162,-1.71821 7.25,-1.21369 4.64113,0.62636 3.04842,2.14414 -2.25,2.14414 -2.75,0 -5,-0.4187 -5,-0.93045 z m 14,-0.0695 c 0,-0.59259 3.66667,-1 9,-1 5.33333,0 9,0.40741 9,1 0,0.59259 -3.66667,1 -9,1 -5.33333,0 -9,-0.40741 -9,-1 z m 21,0 c 0,-0.57778 3.16667,-1 7.5,-1 4.33333,0 7.5,0.42222 7.5,1 0,0.57778 -3.16667,1 -7.5,1 -4.33333,0 -7.5,-0.42222 -7.5,-1 z m 36.54271,0.0691 c -0.89726,-1.4518 0.503,-1.72023 6.70905,-1.28612 3.16346,0.22128 5.4994,0.81063 5.19098,1.30967 -0.73922,1.19609 -11.159,1.17547 -11.90003,-0.0236 z M 192.99597,133.78846 c -4.52241,-0.78399 -2.63892,-2.52697 2.5,-2.3135 2.475,0.1028 6,0.2153 7.83333,0.25 1.94822,0.0369 3.18164,0.51815 2.96828,1.15823 -0.39683,1.19051 -8.48204,1.74077 -13.30161,0.90527 z m 21.70362,-4.3e-4 c -3.20409,-0.48808 -4.68021,-2.58203 -1.70362,-2.41667 0.825,0.0458 4.65,0.15834 8.5,0.25 3.85,0.0917 7,0.57502 7,1.07412 0,1.07892 -9.13628,1.80243 -13.79638,1.09255 z m 18.46305,0.33333 c -1.35961,-1.3596 -0.59454,-2.33333 1.83333,-2.33333 2.79295,0 3.3527,1.45881 0.91821,2.39301 -1.95858,0.75158 -1.93988,0.75199 -2.75154,-0.0597 z m 6.13462,-0.45614 c -0.95288,-0.58891 -0.89964,-0.88847 0.22673,-1.27589 3.35422,-1.15368 6.97198,-1.00569 6.97198,0.2852 0,1.1869 -5.62803,1.96143 -7.19871,0.99069 z m 29.33632,0.20786 c -0.6968,-0.43065 -2.31006,-0.58358 -3.58504,-0.33985 -1.27497,0.24373 -2.62244,-0.0492 -2.99437,-0.65103 -0.45558,-0.73715 0.97448,-1.09417 4.38278,-1.09417 2.78246,0 5.05902,0.42344 5.05902,0.94098 0,1.43828 -1.44916,2.01749 -2.86239,1.14407 z m 11.54819,0.15567 c -2.84802,-0.21034 -4.66822,-0.79345 -4.45679,-1.42776 0.22514,-0.67541 4.13476,-1.04823 10.5642,-1.0074 13.26346,0.0842 12.77561,0.0396 11.65679,1.06567 -1.169,1.07207 -11.25896,1.84993 -17.7642,1.36949 z m -30.14309,-1.17162 c -0.31644,-0.512 -0.16457,-1.18477 0.33749,-1.49506 1.32375,-0.81812 10.1198,0.53945 10.1198,1.56188 0,1.16897 -9.73197,1.10678 -10.45729,-0.0668 z m -58.29271,-10.88865 c -1.2375,-0.17575 -2.25,-0.73825 -2.25,-1.25 0,-0.99796 1.60812,-1.14817 12.5,-1.16757 10.41755,-0.0186 11.50007,0.12144 11.49919,1.48712 -6e-4,0.91447 -2.61776,1.25 -9.75,1.25 -5.36206,0 -10.76169,-0.1438 -11.99919,-0.31955 z m 35,0.10959 c -3.9346,-0.75044 -2.42192,-2.29004 2.25,-2.29004 2.475,0 4.5,0.45 4.5,1 0,0.55 -0.4132,1 -0.91821,1 -0.50502,0 -1.51752,0.16182 -2.25,0.35959 -0.73249,0.19777 -2.34429,0.16648 -3.58179,-0.0695 z m 16,-0.0598 c -8.65178,-0.37932 -9.60996,-1.90455 -1.5,-2.38769 6.81441,-0.40596 16.17209,0.39924 14.75,1.26919 -1.79482,1.09797 -5.87067,1.44203 -13.25,1.1185 z m 16.21512,-0.28667 c -0.39674,-0.64195 -0.14201,-1.52523 0.56608,-1.96285 1.65671,-1.02391 4.16635,-0.0738 3.6782,1.39249 -0.52792,1.58573 -3.37988,1.96898 -4.24428,0.57036 z m 7.83623,-0.2601 c -0.88634,-1.44277 0.16758,-1.65171 9.68473,-1.92 6.49708,-0.18315 9.4664,0.0962 9.74013,0.9165 0.45962,1.37729 -18.59064,2.36144 -19.42486,1.0035 z m -50.05135,-0.93347 c 0.22917,-0.6875 1.01667,-1.25 1.75,-1.25 0.73333,0 1.52083,0.5625 1.75,1.25 0.24786,0.74359 -0.46111,1.25 -1.75,1.25 -1.28889,0 -1.99786,-0.50641 -1.75,-1.25 z m 72.75,0.41667 c 0,-1.409 1.12639,-2.0554 2.59777,-1.49078 2.08694,0.80084 1.69515,2.32411 -0.59777,2.32411 -1.1,0 -2,-0.375 -2,-0.83333 z m 9,-0.10765 c 0,-0.51754 0.46651,-1.22931 1.0367,-1.5817 1.49715,-0.92529 9.07838,0.52747 8.40853,1.6113 -0.74613,1.20726 -9.44523,1.18 -9.44523,-0.0296 z m 13.54271,0.0101 c -0.31644,-0.512 -0.23049,-1.07709 0.19098,-1.25576 1.77906,-0.75417 22.26631,0.39687 22.26631,1.251 0,1.22271 -21.70172,1.22731 -22.45729,0.005 z M 191.74597,109.97036 c -1.2375,-0.17679 -2.25,-0.68828 -2.25,-1.13666 0,-2.17776 32.04063,-2.42379 32.7647,-0.25158 0.22108,0.66325 -0.42303,1.22124 -1.43137,1.23998 -20.45804,0.38021 -27.21846,0.41467 -29.08333,0.14826 z m 33.23474,-0.20702 c -1.08744,-1.75952 0.81168,-2.53484 6.13175,-2.50329 2.86298,0.017 4.88068,0.51928 5.13355,1.27798 0.27722,0.83173 -0.69875,1.25457 -2.91671,1.26365 -1.83333,0.008 -4.29504,0.27172 -5.47047,0.58712 -1.17847,0.31622 -2.46953,0.0357 -2.87812,-0.62546 z m 15.16063,0.33673 c -1.66979,-1.66979 -0.1592,-2.31204 5.43796,-2.31204 4.22443,0 5.96333,0.36002 5.69061,1.17817 -0.41646,1.24938 -10.03323,2.22921 -11.12857,1.13387 z m 17.60463,-0.0803 c -1.2375,-0.20396 -2.25,-0.78953 -2.25,-1.30128 0,-1.21209 4.70815,-1.2117 5.45729,4.5e-4 0.7716,1.24847 -0.46986,1.75199 -3.20729,1.30083 z m 57.63817,-0.30084 c -0.75435,-0.46622 -2.38779,-0.59261 -3.62986,-0.28087 -1.32703,0.33306 -2.25831,0.10971 -2.25831,-0.54161 0,-0.65373 1.9485,-1.11401 4.75,-1.12206 2.6125,-0.008 5.65,-0.23837 6.75,-0.51301 2.26022,-0.56432 5.33639,1.02361 4.19468,2.16531 -1.07893,1.07894 -8.19069,1.29087 -9.80651,0.29224 z m -51.6965,-1.00589 c 0.19708,-0.59125 0.68458,-1.04125 1.08333,-1 0.39875,0.0413 2.075,0.075 3.725,0.075 1.65,0 3,0.45 3,1 0,0.55 -1.8375,1 -4.08333,1 -2.4677,0 -3.94156,-0.42534 -3.725,-1.075 z m 12.80833,0.075 c 0,-0.55 0.675,-1 1.5,-1 0.825,0 1.5,0.45 1.5,1 0,0.55 -0.675,1 -1.5,1 -0.825,0 -1.5,-0.45 -1.5,-1 z m 6.57966,0.1289 c -0.62368,-1.00914 6.99812,-2.22815 9.03774,-1.44548 0.75411,0.28938 1.12214,0.929 0.81784,1.42136 -0.71179,1.1517 -9.14594,1.17234 -9.85558,0.0241 z m 12.89007,-0.17788 c -0.27629,-0.44705 -0.15751,-1.00619 0.26396,-1.24252 1.24682,-0.69912 8.26631,0.43725 8.26631,1.33823 0,1.06674 -7.86638,0.97849 -8.53027,-0.0957 z M 203.92687,97.676228 c -0.99781,-1.61449 1.16255,-2.60148 4.59236,-2.09809 3.25283,0.47741 3.88072,1.64902 1.39495,2.6029 -2.47092,0.94818 -5.23325,0.71528 -5.98731,-0.50481 z m 24.8191,0.31342 c -3.01428,-0.30452 -4.25719,-1.5412 -2.5,-2.48747 0.4125,-0.22214 3.225,-0.13012 6.25,0.20448 5.27838,0.58386 5.37912,0.64873 2.5,1.60985 -1.65,0.55081 -4.4625,0.85372 -6.25,0.67314 z m 15.39537,0.11042 c -1.66978,-1.66979 -0.1592,-2.31204 5.43796,-2.31204 4.22443,0 5.96333,0.36002 5.69061,1.17817 -0.41646,1.24938 -10.03323,2.22921 -11.12857,1.13387 z m 20.35463,-0.05182 c -4.44521,-0.5116 -5.85203,-1.82956 -2.77679,-2.6014 2.8068,-0.70446 7.69909,0.42991 7.83277,1.81618 0.11497,1.19229 -0.58048,1.3003 -5.05598,0.78522 z m 9.12188,-0.17778 c -2.53429,-1.57936 -0.1144,-2.98789 4.65701,-2.71067 3.29434,0.1914 4.72111,0.70554 4.72111,1.70126 0,1.6428 -7.13026,2.41026 -9.37812,1.00941 z m 17.87812,0.21054 c -5.62695,-0.59494 -6.93071,-1.56244 -3,-2.22627 4.55992,-0.77008 9.18218,-0.11326 8.73088,1.24066 -0.43763,1.31288 -1.2744,1.45679 -5.73088,0.98561 z m 23.25,0.001 c -3.6028,-0.69393 -2.60162,-2.05067 1.82475,-2.47279 4.23646,-0.40401 6.18905,0.76394 3.80337,2.27501 -1.42952,0.90544 -1.87308,0.92103 -5.62812,0.19778 z m -124.7055,-1.22198 c -0.31545,-0.51041 0.22049,-1.14695 1.19098,-1.41455 3.10367,-0.85581 9.60974,-0.12178 10.02744,1.13131 0.48834,1.46502 -10.3194,1.73789 -11.21842,0.28324 z m 23.92681,-0.62587 c 1.08421,-0.81964 2.58352,-1.25533 3.33178,-0.9682 0.74827,0.28714 2.44868,0.52207 3.7787,0.52207 1.33001,0 2.41821,0.45 2.41821,1 0,0.55441 -2.56213,0.98583 -5.75,0.9682 -5.3126,-0.0294 -5.60005,-0.14517 -3.77869,-1.52207 z m 86.52869,0.55387 c 0,-0.55 1.35,-1.0675 3,-1.15 1.65,-0.0825 3.525,-0.195 4.16667,-0.25 0.64166,-0.055 1.35416,0.4625 1.58333,1.15 0.29293,0.87879 -0.94444,1.25 -4.16667,1.25 -2.52083,0 -4.58333,-0.45 -4.58333,-1 z m -75.75966,-10.75322 c -2.79139,-0.930464 -0.91247,-2.143832 4.33502,-2.799463 3.63905,-0.454669 5.96016,-0.311799 6.68333,0.411377 0.60939,0.609385 0.91298,1.28266 0.67464,1.496166 -0.68618,0.614702 -10.32008,1.349558 -11.69299,0.89192 z m 19.75966,-0.39608 -2.5,-1.046403 2.39493,-0.923537 c 2.82976,-1.091219 6.37974,-0.205376 5.82725,1.454099 -0.52591,1.579637 -2.71019,1.776541 -5.72218,0.515841 z m 8.66667,0.482633 c -1.49448,-1.494481 -0.47588,-2.333333 2.83333,-2.333333 3.62194,0 4.68813,1.330095 1.91821,2.393011 -2.06815,0.793619 -3.92152,0.770349 -4.75154,-0.05968 z m 23.58333,0.0044 c -0.6875,-0.277426 -1.25,-1.190045 -1.25,-2.028055 0,-0.978532 0.56592,-1.306491 1.58179,-0.916667 0.86998,0.333844 2.72508,0.606989 4.12244,0.606989 2.14498,0 2.34678,0.233607 1.29577,1.5 -1.23794,1.491629 -3.36239,1.80114 -5.75,0.837719 z m 10.41667,-0.0044 c -1.54554,-1.545533 -0.42011,-2.333333 3.33333,-2.333333 2.2,0 4,0.401855 4,0.893011 0,1.731545 -5.88605,2.887609 -7.33333,1.440322 z m 31.71739,-0.52092 c -0.97239,-1.573366 0.39229,-2.145746 5.11594,-2.145746 4.08671,0 6.49054,0.754554 5.41667,1.700278 -1.03466,0.911187 -10.01016,1.290799 -10.53261,0.445468 z M 189.49597,84.171397 c 0,-1.1885 0.59587,-1.456946 2.25,-1.013655 1.2375,0.331637 2.925,0.616012 3.75,0.631944 1.33333,0.02575 1.33333,0.136676 0,0.998342 -2.42539,1.56741 -6,1.20004 -6,-0.616631 z m 14.19167,0.541631 c 0.19708,-0.59125 0.78583,-1.075 1.30833,-1.075 0.5225,0 1.11125,0.48375 1.30833,1.075 0.19709,0.59125 -0.39166,1.075 -1.30833,1.075 -0.91667,0 -1.50542,-0.48375 -1.30833,-1.075 z m 6.04154,-0.122083 c 0.28609,-0.856606 2.29032,-1.302917 5.85097,-1.302917 7.1589,0 6.60009,1.910338 -0.67365,2.302917 -4.26451,0.230164 -5.50796,-0.01001 -5.17732,-1 z m 53.76679,0.310582 c 0,-0.969072 6.02934,-2.151762 7.26631,-1.42533 0.42147,0.247515 0.50742,0.868933 0.19098,1.380929 -0.73366,1.18709 -7.45729,1.227123 -7.45729,0.0444 z m 33.54271,-0.0444 c -0.31644,-0.511996 -0.16457,-1.18477 0.33749,-1.495055 1.32375,-0.818127 10.1198,0.539446 10.1198,1.56188 0,1.168969 -9.73197,1.106778 -10.45729,-0.06683 z m 36.45729,-0.0691 c 0,-0.55 0.675,-1 1.5,-1 0.825,0 1.5,0.45 1.5,1 0,0.55 -0.675,1 -1.5,1 -0.825,0 -1.5,-0.45 -1.5,-1 z M 191.22494,73.696159 c -2.66323,-1.550463 -1.08624,-2.925339 2.5598,-2.231736 4.03846,0.768253 4.52531,1.197092 2.68227,2.362665 -1.87211,1.183961 -3.03331,1.154958 -5.24207,-0.130929 z m 9.96488,0.452389 c -1.36473,-1.364729 0.60604,-2.35914 4.61517,-2.328717 3.90218,0.02961 4.05722,0.132975 2.24985,1.5 -1.99702,1.510469 -5.73235,1.961383 -6.86502,0.828717 z m 17.80615,-0.294075 c -5.86022,-0.474213 -6.67435,-0.749138 -5,-1.688457 2.30223,-1.291565 18.5,-0.634464 18.5,0.750497 0,0.479333 -0.8632,0.871515 -1.91821,0.871515 -1.05502,0 -2.51752,0.1424 -3.25,0.316445 -0.73249,0.174045 -4.48179,0.06154 -8.33179,-0.25 z m 14.8354,-0.332768 c -1.11589,-1.805552 1.75825,-2.402493 10.71523,-2.22549 8.4002,0.165999 11.05018,0.724337 9.72542,2.049099 -1.0021,1.002094 -19.82992,1.164567 -20.44065,0.176391 z m 23.36353,0.631917 c -1.23167,-1.231668 -0.7549,-2.117694 1.44976,-2.694225 2.88767,-0.755144 8.01412,0.340195 7.58715,1.621103 -0.39961,1.198826 -8.00775,2.102284 -9.03691,1.073122 z m 14.99573,-0.06558 c -6.35755,-1.648005 5.64327,-3.11392 20.05534,-2.449783 1.7875,0.08237 3.25,0.52035 3.25,0.973285 0,0.452936 -4.08373,0.775485 -9.07496,0.716776 -4.99122,-0.05871 -9.29278,0.245708 -9.55901,0.676481 -0.51173,0.827982 -1.7156,0.849435 -4.67137,0.08324 z m 30.74651,-0.395199 c -1.14047,-1.845325 0.74622,-2.817273 4.70437,-2.423501 3.8832,0.386317 5.6767,1.093434 4.77113,1.881096 -1.03234,0.897923 -8.97479,1.352571 -9.4755,0.542405 z m 13.55883,-1.535657 c 0,-1.328056 0.69624,-1.515762 3.75,-1.011006 2.0625,0.34091 4.65,0.669645 5.75,0.730522 1.66466,0.09213 1.58082,0.24493 -0.5,0.911326 -4.58679,1.468947 -9,1.15961 -9,-0.630842 z m -106.25,-10.149874 c -3.96604,-0.507839 -3.38767,-2.219284 0.75,-2.219284 1.925,0 3.5,0.423442 3.5,0.940983 0,1.346032 -1.11111,1.680227 -4.25,1.278301 z m 23.27896,-0.192256 c -0.80907,-0.505055 -1.24927,-1.140047 -0.97823,-1.411093 1.01113,-1.011131 14.88641,-1.526662 15.4746,-0.574953 0.75476,1.221229 -0.61858,1.64976 -7.52533,2.34817 -3.025,0.305887 -6.16197,0.142932 -6.97104,-0.362124 z m 16.43736,-0.08152 c -0.3974,-0.643012 -0.18581,-1.500838 0.47021,-1.90628 1.70151,-1.051591 6.21843,-0.0077 5.77816,1.335344 -0.51071,1.557947 -5.36427,2.001435 -6.24837,0.570936 z m 13.28368,0.375605 c -2.37986,-0.636117 -2.20469,-1.968947 0.34645,-2.636085 2.64253,-0.691037 5.10501,0.210145 4.61295,1.688179 -0.42316,1.271062 -2.36316,1.64186 -4.9594,0.947906 z m 14.05071,0.146259 c -0.34917,-0.349162 -2.13466,-0.709659 -3.96778,-0.801106 -4.94862,-0.246866 -4.03715,-2.027563 1.16707,-2.280053 6.03801,-0.292943 13.34921,0.677333 12.32518,1.635685 -1.14244,1.069172 -8.74672,2.22323 -9.52447,1.445474 z m 18.38413,-0.199242 c -3.55777,-0.252463 -5.18072,-0.772439 -4.90856,-1.572649 0.43327,-1.273883 15.15956,-1.592975 16.39724,-0.355299 1.56886,1.568863 -3.81557,2.47244 -11.48868,1.927948 z m 19.50096,-0.0325 c -7.22887,-0.526239 -5.25737,-2.47697 2.68257,-2.654311 5.72116,-0.127783 8.90245,0.656522 7.48177,1.844534 -0.88315,0.73851 -5.78202,1.128796 -10.16434,0.809777 z M 190.74396,60.544071 c 0.2598,-0.779428 2.06471,-1.179093 4.83333,-1.070259 2.43027,0.09553 5.65618,0.205315 7.16868,0.243958 1.5125,0.03864 2.75,0.520258 2.75,1.070258 0,0.578755 -3.19444,1 -7.58333,1 -5.60258,0 -7.47503,-0.32492 -7.16868,-1.243957 z m 27.32124,0.35597 c -0.65105,-1.053413 7.96674,-2.516832 9.44414,-1.603747 0.56059,0.346462 0.76036,1.048836 0.44392,1.560832 -0.73372,1.18719 -9.15827,1.223752 -9.88806,0.04292 z m 111.43077,-0.053 c 0,-1.514966 1.86178,-2.237663 4.00895,-1.556177 3.00894,0.955002 2.38585,2.49716 -1.00895,2.49716 -1.65,0 -3,-0.423442 -3,-0.940983 z M 189.79989,49.471497 c -0.98749,-1.599226 0.82221,-2.038704 8.78736,-2.133963 7.21492,-0.08629 10.08389,0.608658 8.60756,2.084991 -0.86339,0.863382 -16.86421,0.90843 -17.39492,0.04897 z m 31.0028,0.0038 c -1.03433,-1.67358 1.43525,-2.187269 10.51536,-2.187269 7.93842,0 11.42818,0.651806 10.09459,1.885433 -0.93396,0.863947 -20.08917,1.144474 -20.60995,0.301832 z m 24.35995,0.646068 c -1.54554,-1.545537 -0.42011,-2.333337 3.33333,-2.333337 2.2,0 4,0.401855 4,0.893011 0,1.731545 -5.88605,2.887609 -7.33333,1.440322 z m 10.02718,0.02719 c -1.04259,-1.042596 0.27794,-2.360527 2.36517,-2.360527 2.3363,0 2.56825,1.545314 0.35919,2.393011 -1.95225,0.749149 -1.9426,0.749264 -2.72436,-0.03249 z m 12.05615,-0.089 c -6.61332,-0.691775 -4.00535,-2.271532 3.75,-2.271532 4.125,0 7.5,0.397516 7.5,0.883369 0,0.98515 -3.68442,2.173298 -6,1.934873 -0.825,-0.08495 -3.1875,-0.330966 -5.25,-0.54671 z m 18.32414,-0.215223 c -1.33422,-0.336312 -2.59615,-1.122348 -2.80429,-1.746748 -0.26634,-0.799034 1.61532,-1.009831 6.35322,-0.711732 6.2754,0.394836 8.3041,0.885653 7.2936,1.764584 -0.8992,0.782113 -8.55005,1.271749 -10.84253,0.693896 z m 16.17586,0.124646 c -3.41882,-0.486318 -2.68648,-2.165855 1,-2.29339 15.49165,-0.535938 21.75084,-0.009 21.74938,1.83105 -6e-4,0.751611 -18.12617,1.11998 -22.74938,0.46234 z m -89.75,-1.180955 c 0.33992,-0.55 1.49148,-1 2.55902,-1 1.06754,0 1.94098,0.45 1.94098,1 0,0.55 -1.15156,1 -2.55902,1 -1.45136,0 -2.2915,-0.432842 -1.94098,-1 z m 130.5,-1.702699 c -7.02527,-1.209286 -10.57818,-2.789062 -14.59064,-6.487611 -3.36861,-3.105084 -4.40936,-4.787554 -4.40936,-7.12818 0,-2.891047 0.08,-2.954337 1.41932,-1.12264 1.2227,1.672209 2.71199,1.950026 10.75,2.005342 15.04089,0.103508 23.36347,5.286933 18.19005,11.329037 -1.78483,2.084539 -5.05671,2.488953 -11.35937,1.404052 z m -146.54008,-9.36215 c -0.91649,-1.482912 -0.6851,-1.57571 5.73003,-2.297926 3.63177,-0.408865 5.92875,-0.254182 6.35013,0.427634 0.91649,1.482912 0.6851,1.57571 -5.73003,2.297926 -3.63177,0.408865 -5.92875,0.254182 -6.35013,-0.427634 z m 41.73106,0.148746 c -2.22117,-0.561679 -3.24114,-2.688908 -1.19098,-2.483892 0.55,0.055 3.79,0.1675 7.2,0.25 3.6021,0.08715 5.80194,0.516076 5.25,1.023657 -1.2751,1.172635 -8.38534,1.936915 -11.25902,1.210235 z M 252.0381,37.8562 c -1.1958,-1.934846 0.21141,-2.590565 5.53532,-2.579296 3.30599,0.007 5.40943,0.474682 5.67195,1.261122 0.2875,0.861264 -0.82717,1.25 -3.58428,1.25 -2.20085,0 -4.66783,0.255678 -5.48218,0.568174 -0.81435,0.312495 -1.77771,0.0875 -2.14081,-0.5 z m 17.20787,0.14566 c -4.21528,-0.531396 -3.26532,-2.213832 1.25,-2.213832 2.2,0 4,0.401855 4,0.893011 0,1.232638 -1.98602,1.732292 -5.25,1.320821 z m 22.91667,0.119501 c -1.54554,-1.545533 -0.42011,-2.333333 3.33333,-2.333333 2.2,0 4,0.401855 4,0.893011 0,1.731545 -5.88605,2.887609 -7.33333,1.440322 z M 189.49597,36.788028 c 0,-0.55 0.9,-1 2,-1 1.1,0 2,0.45 2,1 0,0.55 -0.9,1 -2,1 -1.1,0 -2,-0.45 -2,-1 z m 23.5,0 c 0.33992,-0.55 1.49148,-1 2.55902,-1 1.06754,0 1.94098,0.45 1.94098,1 0,0.55 -1.15156,1 -2.55902,1 -1.45136,0 -2.2915,-0.432842 -1.94098,-1 z m 7.06593,0.106674 c -0.30366,-0.49133 0.45728,-1.109061 1.69098,-1.372735 3.55232,-0.759227 8.09706,-0.172021 8.52141,1.101014 0.46614,1.398412 -9.35457,1.659711 -10.21239,0.271721 z m 59.93407,-0.106674 c -0.36155,-0.584999 0.67595,-1 2.5,-1 1.82405,0 2.86155,0.415001 2.5,1 -0.33992,0.55 -1.46492,1 -2.5,1 -1.03508,0 -2.16008,-0.45 -2.5,-1 z m 7,0 c -0.33992,-0.55 0.30852,-1 1.44098,-1 1.13246,0 2.05902,0.45 2.05902,1 0,0.55 -0.64844,1 -1.44098,1 -0.79254,0 -1.7191,-0.45 -2.05902,-1 z m 17.5,0 c 0,-0.55 0.675,-1 1.5,-1 0.825,0 1.5,0.45 1.5,1 0,0.55 -0.675,1 -1.5,1 -0.825,0 -1.5,-0.45 -1.5,-1 z m 6.25,-0.25 c 0.22917,-0.6875 1.46667,-1.25 2.75,-1.25 1.28333,0 2.52083,0.5625 2.75,1.25 0.27485,0.824561 -0.66111,1.25 -2.75,1.25 -2.08889,0 -3.02485,-0.425439 -2.75,-1.25 z m 34.5,-4.861866 c -1.79738,-1.014251 -2.44224,-3.888134 -0.87244,-3.888134 1.271,0 3.37141,2.763895 2.96698,3.904202 -0.22177,0.625303 -0.96809,0.619578 -2.09454,-0.01607 z M 190.08081,25.9253 c -0.91855,-1.486243 0.30206,-1.894452 6.82998,-2.284163 4.10588,-0.245117 6.04282,0.02918 6.33334,0.896891 0.2977,0.889169 -1.02526,1.25 -4.58304,1.25 -2.75085,0 -5.66783,0.255678 -6.48218,0.568174 -0.81435,0.312495 -1.7585,0.118589 -2.0981,-0.430902 z m 18.10266,0.216895 c -1.3041,-1.304099 -0.68149,-2.354167 1.39583,-2.354167 1.16375,0 1.90861,0.524167 1.6875,1.1875 -0.48711,1.461343 -2.15686,2.093139 -3.08333,1.166667 z m 5.96096,-0.03904 c -1.23415,-1.234143 -0.63806,-2.083958 1.78689,-2.547518 2.3101,-0.441602 5.54176,0.65375 4.53569,1.537344 -0.99602,0.874763 -5.70554,1.627215 -6.32258,1.010174 z m 8.8447,-0.326184 c -1.17113,-1.894931 0.83395,-2.517967 6.9076,-2.146393 5.69342,0.348311 7.97784,2.15745 2.72424,2.15745 -1.58125,0 -4.22667,0.270335 -5.87872,0.600744 -1.8691,0.373821 -3.28679,0.14272 -3.75312,-0.611803 z m 40.75684,0.301095 c -3.9346,-0.750442 -2.42192,-2.290038 2.25,-2.290038 2.475,0 4.5,0.45 4.5,1 0,0.55 -0.4132,1 -0.91821,1 -0.50502,0 -1.51752,0.161815 -2.25,0.359589 -0.73249,0.197774 -2.34429,0.166476 -3.58179,-0.06955 z m 16,-0.0598 c -8.65178,-0.379318 -9.60996,-1.90455 -1.5,-2.387691 6.81441,-0.405961 16.17209,0.399238 14.75,1.269192 -1.79482,1.097966 -5.87067,1.442029 -13.25,1.118499 z m 17.25,-0.230238 c -1.24581,-2.015759 0.73424,-2.997623 5.16923,-2.56332 5.02202,0.491789 5.84909,0.91565 4.87189,2.496789 -0.83429,1.349901 -9.21364,1.405421 -10.04112,0.06653 z m -57,-1 c -0.33992,-0.55 0.33508,-1 1.5,-1 1.16492,0 1.83992,0.45 1.5,1 -0.33992,0.55 -1.01492,1 -1.5,1 -0.48508,0 -1.16008,-0.45 -1.5,-1 z m 5.5,0.06739 c 0,-2.080267 11.06643,-2.368098 11.75389,-0.305712 0.29799,0.893959 -1.27893,1.238322 -5.67056,1.238322 -3.34583,0 -6.08333,-0.419676 -6.08333,-0.932612 z m 64,-0.06739 c 0,-1.664364 7.7087,-1.59619 9.45,0.08357 0.58004,0.559543 -1.07506,0.91643 -4.25,0.91643 -2.86,0 -5.2,-0.45 -5.2,-1 z"
         style="fill:#c8c8c7" />
      <path
         inkscape:connector-curvature="0"
         id="path1062"
         d="m 173.74597,228.66925 c -1.91477,-0.55287 -3.25,-1.59322 -3.25,-2.53226 0,-1.2472 0.30227,-1.34299 1.3898,-0.44042 1.02817,0.8533 25.16247,1.14365 92.75,1.11582 79.40739,-0.0327 91.50397,-0.23097 92.45908,-1.51545 1.16091,-1.56126 2.40112,-1.01379 2.40112,1.05993 0,3.21645 -6.07326,3.43139 -94.39922,3.34097 -51.60546,-0.0528 -89.44708,-0.47892 -91.35078,-1.02859 z M 338.84029,42.858165 c -2.28563,-0.373742 -6.09711,-1.964306 -8.46997,-3.534588 -3.83324,-2.536721 -4.09463,-2.940908 -2.34432,-3.625018 2.86138,-1.118366 12.39,-1.060483 16.57006,0.100658 4.84458,1.345731 7.63518,4.397942 5.91548,6.470053 -1.31079,1.579402 -4.59911,1.74532 -11.67125,0.588895 z"
         style="fill:#a9a9a9" />
    </g>
  </g>
</svg>
