<?xml version="1.0" encoding="UTF-8" standalone="no"?>
<!-- Created with Inkscape (http://www.inkscape.org/) -->

<svg
   xmlns:dc="http://purl.org/dc/elements/1.1/"
   xmlns:cc="http://creativecommons.org/ns#"
   xmlns:rdf="http://www.w3.org/1999/02/22-rdf-syntax-ns#"
   xmlns:svg="http://www.w3.org/2000/svg"
   xmlns="http://www.w3.org/2000/svg"
   xmlns:sodipodi="http://sodipodi.sourceforge.net/DTD/sodipodi-0.dtd"
   xmlns:inkscape="http://www.inkscape.org/namespaces/inkscape"
   version="1.1"
   id="svg866"
   width="197.00002"
   height="224.25793"
   viewBox="0 0 197.00002 224.25793"
   sodipodi:docname="running.svg"
   inkscape:version="0.92.3 (unknown)">
  <metadata
     id="metadata872">
    <rdf:RDF>
      <cc:Work
         rdf:about="">
        <dc:format>image/svg+xml</dc:format>
        <dc:type
           rdf:resource="http://purl.org/dc/dcmitype/StillImage" />
        <dc:title></dc:title>
      </cc:Work>
    </rdf:RDF>
  </metadata>
  <defs
     id="defs870" />
  <sodipodi:namedview
     pagecolor="#ffffff"
     bordercolor="#666666"
     borderopacity="1"
     objecttolerance="10"
     gridtolerance="10"
     guidetolerance="10"
     inkscape:pageopacity="0"
     inkscape:pageshadow="2"
     inkscape:window-width="1920"
     inkscape:window-height="1004"
     id="namedview868"
     showgrid="false"
     inkscape:zoom="0.93222222"
     inkscape:cx="-104.02473"
     inkscape:cy="341.32314"
     inkscape:window-x="0"
     inkscape:window-y="24"
     inkscape:window-maximized="1"
     inkscape:current-layer="svg866" />
  <path
     style="fill:#000000"
     d="m 94.298051,223.97812 c -3.75527,-0.80193 -8.29857,-6.89768 -8.29431,-11.12851 0.005,-5.07084 1.47465,-7.13467 19.378599,-27.2152 8.58172,-9.625 15.6064,-17.78643 15.6104,-18.13651 0.008,-0.68875 -28.501909,-25.21653 -29.741359,-25.58737 -0.41326,-0.12364 -4.72836,6.49054 -9.589109,14.69818 -4.86075,8.20764 -9.81075,15.97154 -11,17.25312 -1.497689,1.61397 -9.679179,4.90818 -26.619224,10.71803 -13.451323,4.61334 -25.601323,8.98512 -27,9.71506 C 9.239656,198.36736 0,192.17077 0,182.86498 c 0,-7.33223 1.464378,-8.219 28.397732,-17.19647 l 24.378385,-8.12586 14.611946,-24.37348 c 8.036559,-13.40542 14.611939,-24.59036 14.611939,-24.85543 0,-0.26507 5.645899,-12.730453 12.546449,-27.70085 6.900539,-14.9704 12.413039,-27.35016 12.249999,-27.51058 -0.91798,-0.90319 -17.399499,-5.14081 -17.919159,-4.60725 -0.34249,0.35165 -3.64147,8.37704 -7.331069,17.83419 -3.68959,9.45716 -7.27726,17.666987 -7.97259,18.244057 -0.69534,0.57708 -2.66583,1.32955 -4.378879,1.67216 -2.58638,0.51727 -3.63023,0.10732 -6.15469,-2.41714 -1.67203,-1.67203 -3.04006,-3.934467 -3.04006,-5.027617 0,-1.09316 3.61719,-11.36528 8.0382,-22.82693 8.773419,-22.74542 10.480019,-25.33936 16.671228,-25.33936 5.48889,0 50.194959,12.78354 54.532029,15.59323 5.18284,3.35761 7.93051,7.9133 14.6247,24.24799 l 5.78936,14.126767 12.42225,-10.472677 c 10.80353,-9.10801 12.89931,-10.47416 16.08335,-10.484 4.63565,-0.0143 8.83889,4.45753 8.83889,9.40376 0,3.00261 -1.5132,4.54506 -19.05493,19.423277 -20.18368,17.119003 -22.25056,18.229803 -26.81604,14.411653 -1.15089,-0.9625 -3.18681,-4.675 -4.52427,-8.250003 -5.21902,-13.95036 -3.4378,-15.04158 -14.603,8.946233 -5.45251,11.71441 -10.71707,22.18668 -11.69902,23.27173 -1.71821,1.89859 -1.70905,2.03507 0.24347,3.62743 13.64613,11.129 27.80379,23.93078 28.97929,26.20393 2.14196,4.1421 1.81462,8.17037 -1.00108,12.31953 -2.57323,3.79187 -39.68664,45.77593 -43.24812,48.92388 -2.1334,1.88568 -7.263889,2.84417 -10.978259,2.05097 z M 141.88127,42.84105 c -7.63307,-3.98756 -11.16861,-9.35552 -11.70445,-17.77066 -0.54935,-8.62736 1.58607,-14.17705 7.43665,-19.3269397 14.70593,-12.94467 37.68242,-2.5987 37.71155,16.9809597 0.0262,17.60215 -17.76824,28.30563 -33.44375,20.11664 z"
     id="path876"
     inkscape:connector-curvature="0" />
</svg>
